<svg width="22" height="23" viewBox="0 0 22 23" fill="none" xmlns="http://www.w3.org/2000/svg">
<mask id="path-1-inside-1_13768_53" fill="white">
<path d="M20.8142 8.3915L20.8068 8.35467C20.8019 8.33011 20.7995 8.30801 20.7921 8.28346C20.7872 8.26873 20.7823 8.25645 20.7798 8.24172C20.7725 8.22208 20.7676 8.19998 20.7577 8.18034C20.7528 8.1656 20.7455 8.15333 20.7381 8.13859C20.7283 8.11895 20.7185 8.10176 20.7086 8.08212C20.7013 8.06984 20.6939 8.05511 20.6841 8.04283C20.6644 8.01337 20.6423 7.98391 20.6202 7.95444C20.608 7.93971 20.5932 7.92252 20.5785 7.90779C20.5687 7.89551 20.5564 7.88569 20.5441 7.87587C20.5294 7.86114 20.5122 7.84886 20.4975 7.83659C20.4852 7.82676 20.4729 7.81694 20.4582 7.80712C20.4533 7.80467 20.4484 7.79975 20.4435 7.7973L11.4691 1.82341C11.3307 1.73094 11.1679 1.68158 11.0014 1.68158C10.8349 1.68158 10.6721 1.73094 10.5336 1.82341L1.55439 7.80221C1.54948 7.80467 1.54457 7.80958 1.53966 7.81203C1.52739 7.82185 1.51511 7.83167 1.50038 7.8415C1.48319 7.85377 1.46846 7.8685 1.45372 7.88078C1.44145 7.8906 1.43163 7.90288 1.41935 7.9127C1.40462 7.92743 1.38989 7.94217 1.37761 7.95935C1.35306 7.98636 1.33341 8.01583 1.31377 8.04775C1.3064 8.06002 1.29658 8.0723 1.28922 8.08703C1.27939 8.10422 1.26957 8.12386 1.25975 8.14351C1.25239 8.15578 1.24747 8.17051 1.24011 8.18525C1.23274 8.20489 1.22538 8.22699 1.21801 8.24663C1.2131 8.26136 1.20819 8.27364 1.20573 8.28837C1.20082 8.31047 1.19591 8.33502 1.191 8.35958L1.18364 8.39641C1.17872 8.43324 1.17627 8.47007 1.17627 8.5069V14.4857C1.17627 14.5225 1.17872 14.5594 1.18364 14.5962L1.191 14.633L1.20573 14.7042C1.21064 14.719 1.2131 14.7312 1.21801 14.746C1.22538 14.7681 1.23274 14.7877 1.24011 14.8073C1.24502 14.8221 1.25239 14.8344 1.25975 14.8491C1.26957 14.8687 1.27694 14.8859 1.28922 14.9056C1.29658 14.9178 1.30395 14.9326 1.31377 14.9448C1.32605 14.962 1.33587 14.9792 1.3506 14.9964L1.38006 15.0332C1.39234 15.048 1.40707 15.0652 1.42181 15.0799C1.43163 15.0922 1.4439 15.102 1.45618 15.1118C1.47091 15.1265 1.4881 15.1388 1.50283 15.1511C1.51511 15.1609 1.52739 15.1707 1.54212 15.1806C1.54703 15.183 1.55194 15.1879 1.55685 15.1904L10.5336 21.1692C10.6711 21.2625 10.8356 21.3116 11.0026 21.3116C11.1647 21.3116 11.3292 21.2649 11.4716 21.1692L20.4484 15.1904C20.4533 15.1879 20.4582 15.183 20.4631 15.1806C20.4754 15.1707 20.4877 15.1609 20.5024 15.1511C20.5196 15.1388 20.5343 15.1241 20.549 15.1118C20.5613 15.102 20.5711 15.0897 20.5834 15.0799C20.5981 15.0652 20.6129 15.0504 20.6252 15.0332L20.6546 14.9964L20.6914 14.9448C20.6988 14.9326 20.7086 14.9203 20.716 14.9056C20.7258 14.8859 20.7356 14.8687 20.7455 14.8491C20.7528 14.8368 20.7577 14.8221 20.7651 14.8073C20.7725 14.7877 20.7798 14.7656 20.7872 14.746C20.7921 14.7337 20.797 14.719 20.7995 14.7042C20.8068 14.6821 20.8093 14.6576 20.8142 14.633L20.8216 14.5962C20.8265 14.5594 20.8289 14.5225 20.8289 14.4857V8.50199C20.8216 8.46516 20.8191 8.42833 20.8142 8.3915ZM11.8448 4.09953L18.4595 8.50444L15.5057 10.4785L11.8473 8.03301V4.09953H11.8448ZM10.1555 4.09953V8.03301L6.49703 10.4785L3.54323 8.50444L10.1555 4.09953ZM2.86556 10.0808L4.97716 11.4926L2.86556 12.9044V10.0808ZM10.1555 18.8832L3.54323 14.4783L6.49703 12.5042L10.1555 14.9498V18.8832ZM11.0002 13.4864L8.01444 11.4926L11.0002 9.49641L13.9859 11.4902L11.0002 13.4864ZM11.8448 18.8832V14.9498L15.5033 12.5042L18.4571 14.4783L11.8448 18.8832ZM19.1348 12.902L17.0231 11.4902L19.1348 10.0783V12.902Z"/>
</mask>
<path d="M20.8142 8.3915L20.8068 8.35467C20.8019 8.33011 20.7995 8.30801 20.7921 8.28346C20.7872 8.26873 20.7823 8.25645 20.7798 8.24172C20.7725 8.22208 20.7676 8.19998 20.7577 8.18034C20.7528 8.1656 20.7455 8.15333 20.7381 8.13859C20.7283 8.11895 20.7185 8.10176 20.7086 8.08212C20.7013 8.06984 20.6939 8.05511 20.6841 8.04283C20.6644 8.01337 20.6423 7.98391 20.6202 7.95444C20.608 7.93971 20.5932 7.92252 20.5785 7.90779C20.5687 7.89551 20.5564 7.88569 20.5441 7.87587C20.5294 7.86114 20.5122 7.84886 20.4975 7.83659C20.4852 7.82676 20.4729 7.81694 20.4582 7.80712C20.4533 7.80467 20.4484 7.79975 20.4435 7.7973L11.4691 1.82341C11.3307 1.73094 11.1679 1.68158 11.0014 1.68158C10.8349 1.68158 10.6721 1.73094 10.5336 1.82341L1.55439 7.80221C1.54948 7.80467 1.54457 7.80958 1.53966 7.81203C1.52739 7.82185 1.51511 7.83167 1.50038 7.8415C1.48319 7.85377 1.46846 7.8685 1.45372 7.88078C1.44145 7.8906 1.43163 7.90288 1.41935 7.9127C1.40462 7.92743 1.38989 7.94217 1.37761 7.95935C1.35306 7.98636 1.33341 8.01583 1.31377 8.04775C1.3064 8.06002 1.29658 8.0723 1.28922 8.08703C1.27939 8.10422 1.26957 8.12386 1.25975 8.14351C1.25239 8.15578 1.24747 8.17051 1.24011 8.18525C1.23274 8.20489 1.22538 8.22699 1.21801 8.24663C1.2131 8.26136 1.20819 8.27364 1.20573 8.28837C1.20082 8.31047 1.19591 8.33502 1.191 8.35958L1.18364 8.39641C1.17872 8.43324 1.17627 8.47007 1.17627 8.5069V14.4857C1.17627 14.5225 1.17872 14.5594 1.18364 14.5962L1.191 14.633L1.20573 14.7042C1.21064 14.719 1.2131 14.7312 1.21801 14.746C1.22538 14.7681 1.23274 14.7877 1.24011 14.8073C1.24502 14.8221 1.25239 14.8344 1.25975 14.8491C1.26957 14.8687 1.27694 14.8859 1.28922 14.9056C1.29658 14.9178 1.30395 14.9326 1.31377 14.9448C1.32605 14.962 1.33587 14.9792 1.3506 14.9964L1.38006 15.0332C1.39234 15.048 1.40707 15.0652 1.42181 15.0799C1.43163 15.0922 1.4439 15.102 1.45618 15.1118C1.47091 15.1265 1.4881 15.1388 1.50283 15.1511C1.51511 15.1609 1.52739 15.1707 1.54212 15.1806C1.54703 15.183 1.55194 15.1879 1.55685 15.1904L10.5336 21.1692C10.6711 21.2625 10.8356 21.3116 11.0026 21.3116C11.1647 21.3116 11.3292 21.2649 11.4716 21.1692L20.4484 15.1904C20.4533 15.1879 20.4582 15.183 20.4631 15.1806C20.4754 15.1707 20.4877 15.1609 20.5024 15.1511C20.5196 15.1388 20.5343 15.1241 20.549 15.1118C20.5613 15.102 20.5711 15.0897 20.5834 15.0799C20.5981 15.0652 20.6129 15.0504 20.6252 15.0332L20.6546 14.9964L20.6914 14.9448C20.6988 14.9326 20.7086 14.9203 20.716 14.9056C20.7258 14.8859 20.7356 14.8687 20.7455 14.8491C20.7528 14.8368 20.7577 14.8221 20.7651 14.8073C20.7725 14.7877 20.7798 14.7656 20.7872 14.746C20.7921 14.7337 20.797 14.719 20.7995 14.7042C20.8068 14.6821 20.8093 14.6576 20.8142 14.633L20.8216 14.5962C20.8265 14.5594 20.8289 14.5225 20.8289 14.4857V8.50199C20.8216 8.46516 20.8191 8.42833 20.8142 8.3915ZM11.8448 4.09953L18.4595 8.50444L15.5057 10.4785L11.8473 8.03301V4.09953H11.8448ZM10.1555 4.09953V8.03301L6.49703 10.4785L3.54323 8.50444L10.1555 4.09953ZM2.86556 10.0808L4.97716 11.4926L2.86556 12.9044V10.0808ZM10.1555 18.8832L3.54323 14.4783L6.49703 12.5042L10.1555 14.9498V18.8832ZM11.0002 13.4864L8.01444 11.4926L11.0002 9.49641L13.9859 11.4902L11.0002 13.4864ZM11.8448 18.8832V14.9498L15.5033 12.5042L18.4571 14.4783L11.8448 18.8832ZM19.1348 12.902L17.0231 11.4902L19.1348 10.0783V12.902Z" fill="#2188FF" stroke="#2188FF" stroke-width="0.00223214" mask="url(#path-1-inside-1_13768_53)"/>
</svg>
