<svg width="24" height="24" viewBox="0 0 24 24" fill="none" xmlns="http://www.w3.org/2000/svg">
<path d="M7.44641 10.9286H16.6071C16.6178 10.9286 16.6312 10.9286 16.6419 10.9259C16.7598 10.9071 16.8375 10.7973 16.8187 10.6795L15.7419 4.0366C15.7259 3.93214 15.6348 3.85714 15.5303 3.85714H8.5232C8.41873 3.85714 8.32766 3.93214 8.31159 4.0366L7.2348 10.6795C7.23213 10.6902 7.23213 10.7036 7.23213 10.7143C7.23213 10.8321 7.32855 10.9286 7.44641 10.9286ZM9.88927 5.67857H14.1616L14.7161 9.10714H9.33212L9.88927 5.67857ZM9.95623 13.2509C9.94016 13.1464 9.84909 13.0714 9.74462 13.0714H2.73748C2.63302 13.0714 2.54195 13.1464 2.52588 13.2509L1.44909 19.8937C1.44641 19.9045 1.44641 19.9179 1.44641 19.9286C1.44641 20.0464 1.54284 20.1429 1.6607 20.1429H10.8214C10.8321 20.1429 10.8455 20.1429 10.8562 20.1402C10.9741 20.1214 11.0518 20.0116 11.033 19.8937L9.95623 13.2509ZM3.54909 18.3214L4.10355 14.8929H8.37588L8.93034 18.3214H3.54909ZM22.5509 19.8937L21.4741 13.2509C21.458 13.1464 21.3669 13.0714 21.2625 13.0714H14.2553C14.1509 13.0714 14.0598 13.1464 14.0437 13.2509L12.9669 19.8937C12.9643 19.9045 12.9643 19.9179 12.9643 19.9286C12.9643 20.0464 13.0607 20.1429 13.1786 20.1429H22.3393C22.35 20.1429 22.3634 20.1429 22.3741 20.1402C22.4893 20.1214 22.5696 20.0116 22.5509 19.8937ZM15.0669 18.3214L15.6214 14.8929H19.8937L20.4482 18.3214H15.0669Z" fill="white"/>
</svg>
